<svg width="33" height="33" viewBox="0 0 33 33" fill="none" xmlns="http://www.w3.org/2000/svg">
<path d="M12.5221 7.491C13.3444 5.08475 16.6691 5.01188 17.644 7.27238L17.7265 7.49238L18.8361 10.7374C19.0904 11.4816 19.5014 12.1626 20.0412 12.7345C20.5811 13.3063 21.2373 13.7558 21.9656 14.0525L22.264 14.1639L25.509 15.2721C27.9153 16.0944 27.9881 19.4191 25.729 20.394L25.509 20.4765L22.264 21.5861C21.5196 21.8403 20.8383 22.2511 20.2662 22.791C19.694 23.3308 19.2444 23.9872 18.9475 24.7156L18.8361 25.0126L17.7279 28.259C16.9056 30.6653 13.5809 30.7381 12.6074 28.479L12.5221 28.259L11.4139 25.014C11.1598 24.2696 10.7489 23.5883 10.209 23.0161C9.66917 22.444 9.01286 21.9944 8.2844 21.6975L7.9874 21.5861L4.7424 20.4779C2.33477 19.6556 2.2619 16.3309 4.5224 15.3574L4.7424 15.2721L7.9874 14.1639C8.73159 13.9096 9.4126 13.4986 9.98448 12.9588C10.5564 12.4189 11.0058 11.7627 11.3025 11.0344L11.4139 10.7374L12.5221 7.491ZM26.125 2.75C26.3823 2.75 26.6343 2.82216 26.8526 2.95827C27.0709 3.09439 27.2466 3.289 27.3598 3.52L27.4258 3.68088L27.907 5.09163L29.3191 5.57288C29.5769 5.66046 29.8029 5.8226 29.9685 6.03875C30.134 6.2549 30.2317 6.51533 30.249 6.78703C30.2664 7.05873 30.2027 7.32948 30.0661 7.56496C29.9294 7.80044 29.7259 7.99004 29.4814 8.10975L29.3191 8.17575L27.9084 8.657L27.4271 10.0691C27.3394 10.3268 27.1771 10.5527 26.9609 10.7181C26.7447 10.8835 26.4842 10.981 26.2125 10.9982C25.9408 11.0155 25.6701 10.9517 25.4347 10.8149C25.1994 10.6781 25.0099 10.4746 24.8903 10.23L24.8243 10.0691L24.343 8.65837L22.9309 8.17713C22.6731 8.08954 22.4471 7.9274 22.2816 7.71125C22.116 7.4951 22.0184 7.23468 22.001 6.96297C21.9836 6.69127 22.0473 6.42052 22.184 6.18504C22.3206 5.94957 22.5241 5.75996 22.7686 5.64025L22.9309 5.57425L24.3416 5.093L24.8229 3.68088C24.9156 3.40921 25.091 3.17337 25.3245 3.00644C25.5581 2.8395 25.838 2.74983 26.125 2.75Z" fill="currentColor"/>
</svg>
