<svg width="121" height="121" viewBox="0 0 121 121" fill="none" xmlns="http://www.w3.org/2000/svg">
<path d="M86.7167 68.4406C85.3722 68.4406 84.048 68.3146 82.7438 68.0625C81.4397 67.8104 80.1171 67.4743 78.776 67.0542C77.435 66.634 76.4888 65.7938 75.9376 64.5333C75.3864 63.2729 75.3242 61.9285 75.751 60.5C76.1712 59.2396 76.9694 58.3153 78.1458 57.7271C79.3222 57.1389 80.5826 57.0549 81.9271 57.475C82.8514 57.7271 83.7135 57.9372 84.5135 58.1052C85.3134 58.2733 86.0898 58.3573 86.8427 58.3573C87.851 58.3573 88.8594 58.1892 89.8677 57.8531C90.876 57.517 91.9264 57.0129 93.0188 56.3406C95.0354 54.9122 97.0521 53.9458 99.0687 53.4417C101.085 52.9375 103.018 52.6854 104.867 52.6854C106.127 52.6854 107.43 52.7913 108.774 53.003C110.118 53.2148 111.463 53.5291 112.807 53.9458C114.152 54.3626 115.138 55.2029 115.767 56.4667C116.395 57.7304 116.501 59.0749 116.084 60.5C115.664 61.8444 114.824 62.8108 113.564 63.399C112.303 63.9872 111.001 64.0712 109.656 63.651C108.732 63.399 107.87 63.1889 107.07 63.0208C106.27 62.8528 105.536 62.7688 104.867 62.7688C103.858 62.7688 102.744 62.9587 101.524 63.3385C100.304 63.7183 99.0234 64.3686 97.6823 65.2896C95.9177 66.466 94.133 67.2861 92.328 67.7499C90.5231 68.2138 88.6527 68.444 86.7167 68.4406ZM86.8427 48.7781C85.4983 48.7781 84.1538 48.6521 82.8094 48.4C81.4649 48.1479 80.1205 47.8118 78.776 47.3917C77.4316 46.9715 76.4653 46.1312 75.8771 44.8708C75.2889 43.6104 75.2049 42.266 75.625 40.8375C76.0451 39.5771 76.8636 38.6528 78.0803 38.0646C79.297 37.4764 80.5793 37.3924 81.9271 37.8125C82.8514 38.1486 83.7337 38.3805 84.574 38.5083C85.4142 38.636 86.1705 38.6982 86.8427 38.6948C87.851 38.6948 88.8594 38.5486 89.8677 38.2562C90.876 37.9637 91.9264 37.4377 93.0188 36.6781C95.1195 35.2497 97.1563 34.2833 99.1292 33.7792C101.102 33.275 103.015 33.0229 104.867 33.0229C106.211 33.0229 107.534 33.1288 108.834 33.3405C110.135 33.5523 111.459 33.8666 112.807 34.2833C114.155 34.7001 115.121 35.5404 115.706 36.8042C116.291 38.0679 116.375 39.4124 115.958 40.8375C115.538 42.1819 114.718 43.1483 113.498 43.7365C112.278 44.3247 110.997 44.4087 109.656 43.9885C108.732 43.6524 107.87 43.4222 107.07 43.2978C106.27 43.1735 105.536 43.1096 104.867 43.1063C103.774 43.1063 102.66 43.2743 101.524 43.6104C100.388 43.9465 99.1074 44.6188 97.6823 45.6271C96.1698 46.7194 94.4691 47.5177 92.5801 48.0219C90.6912 48.526 88.7787 48.7781 86.8427 48.7781ZM86.8427 88.1031C85.4142 88.1031 84.0496 87.9771 82.7489 87.725C81.4481 87.4729 80.1238 87.1368 78.776 86.7167C77.4282 86.2965 76.4838 85.4563 75.9426 84.1958C75.4015 82.9354 75.3376 81.591 75.751 80.1625C76.1712 78.9021 76.9694 77.9778 78.1458 77.3896C79.3222 76.8014 80.5826 76.7174 81.9271 77.1375C82.8514 77.3896 83.7337 77.5997 84.574 77.7677C85.4142 77.9358 86.1705 78.0198 86.8427 78.0198C87.851 78.0198 88.8594 77.8736 89.8677 77.5812C90.876 77.2888 91.9264 76.7627 93.0188 76.0031C94.9514 74.6587 97.0101 73.7142 99.1948 73.1697C101.38 72.6252 103.312 72.3513 104.993 72.3479C106.253 72.3479 107.535 72.4538 108.839 72.6655C110.144 72.8773 111.466 73.1916 112.807 73.6083C114.148 74.0251 115.137 74.8654 115.772 76.1292C116.407 77.393 116.511 78.7374 116.084 80.1625C115.664 81.5069 114.824 82.4733 113.564 83.0615C112.303 83.6497 111.001 83.7337 109.656 83.3135C108.648 82.9774 107.766 82.7472 107.009 82.6228C106.253 82.4985 105.539 82.4346 104.867 82.4313C103.69 82.4313 102.494 82.6212 101.277 83.001C100.06 83.3808 98.862 84.0311 97.6823 84.9521C96.2538 85.9604 94.5951 86.7385 92.7062 87.2864C90.8172 87.8342 88.8627 88.1065 86.8427 88.1031ZM20.1667 105.875C18.7382 105.875 17.5416 105.391 16.577 104.423C15.6124 103.455 15.1284 102.258 15.125 100.833V30.25C15.125 26.0486 16.5955 22.4774 19.5365 19.5365C22.4774 16.5955 26.0486 15.125 30.25 15.125H50.4167C54.6181 15.125 58.1892 16.5955 61.1302 19.5365C64.0712 22.4774 65.5417 26.0486 65.5417 30.25V40.3333H50.4167C47.6437 40.3333 45.2708 41.3215 43.2978 43.2978C41.3249 45.2742 40.3367 47.6471 40.3333 50.4167V75.625C40.3333 78.3979 41.3215 80.7725 43.2978 82.7489C45.2742 84.7252 47.6471 85.7117 50.4167 85.7083H65.5417V100.833C65.5417 102.262 65.0577 103.46 64.0897 104.428C63.1217 105.396 61.9251 105.878 60.5 105.875H20.1667ZM65.5417 75.625H50.4167V50.4167H65.5417V75.625Z" fill="currentColor"/>
</svg>
