<svg width="33" height="33" viewBox="0 0 33 33" fill="none" xmlns="http://www.w3.org/2000/svg">
<g clip-path="url(#clip0_1271_569)">
<path d="M11.3438 6.1875V2.0625C11.3438 1.789 11.4524 1.52669 11.6458 1.3333C11.8392 1.1399 12.1015 1.03125 12.375 1.03125C12.6485 1.03125 12.9108 1.1399 13.1042 1.3333C13.2976 1.52669 13.4063 1.789 13.4063 2.0625V6.1875C13.4063 6.461 13.2976 6.72331 13.1042 6.9167C12.9108 7.1101 12.6485 7.21875 12.375 7.21875C12.1015 7.21875 11.8392 7.1101 11.6458 6.9167C11.4524 6.72331 11.3438 6.461 11.3438 6.1875ZM16.5 7.21875C16.7735 7.21875 17.0358 7.1101 17.2292 6.9167C17.4226 6.72331 17.5313 6.461 17.5313 6.1875V2.0625C17.5313 1.789 17.4226 1.52669 17.2292 1.3333C17.0358 1.1399 16.7735 1.03125 16.5 1.03125C16.2265 1.03125 15.9642 1.1399 15.7708 1.3333C15.5774 1.52669 15.4688 1.789 15.4688 2.0625V6.1875C15.4688 6.461 15.5774 6.72331 15.7708 6.9167C15.9642 7.1101 16.2265 7.21875 16.5 7.21875ZM20.625 7.21875C20.8985 7.21875 21.1608 7.1101 21.3542 6.9167C21.5476 6.72331 21.6563 6.461 21.6563 6.1875V2.0625C21.6563 1.789 21.5476 1.52669 21.3542 1.3333C21.1608 1.1399 20.8985 1.03125 20.625 1.03125C20.3515 1.03125 20.0892 1.1399 19.8958 1.3333C19.7024 1.52669 19.5938 1.789 19.5938 2.0625V6.1875C19.5938 6.461 19.7024 6.72331 19.8958 6.9167C20.0892 7.1101 20.3515 7.21875 20.625 7.21875ZM32.5875 13.2L28.875 15.9844V23.7188C28.875 24.8128 28.4404 25.862 27.6668 26.6356C26.8932 27.4092 25.844 27.8438 24.75 27.8438H8.25C7.15599 27.8438 6.10678 27.4092 5.33319 26.6356C4.5596 25.862 4.125 24.8128 4.125 23.7188V15.9844L0.412504 13.2C0.193701 13.0359 0.0490482 12.7916 0.0103688 12.5208C-0.0283106 12.2501 0.0421515 11.9751 0.206254 11.7562C0.370357 11.5374 0.614658 11.3928 0.885413 11.3541C1.15617 11.3154 1.4312 11.3859 1.65 11.55L4.125 13.4062V10.3125C4.125 10.039 4.23365 9.77669 4.42705 9.5833C4.62045 9.3899 4.88275 9.28125 5.15625 9.28125H27.8438C28.1173 9.28125 28.3796 9.3899 28.573 9.5833C28.7664 9.77669 28.875 10.039 28.875 10.3125V13.4062L31.35 11.55C31.5688 11.3859 31.8438 11.3154 32.1146 11.3541C32.3854 11.3928 32.6297 11.5374 32.7938 11.7562C32.9579 11.9751 33.0283 12.2501 32.9896 12.5208C32.951 12.7916 32.8063 13.0359 32.5875 13.2ZM26.8125 11.3438H6.1875V23.7188C6.1875 24.2658 6.4048 24.7904 6.7916 25.1772C7.17839 25.564 7.70299 25.7812 8.25 25.7812H24.75C25.297 25.7812 25.8216 25.564 26.2084 25.1772C26.5952 24.7904 26.8125 24.2658 26.8125 23.7188V11.3438Z" fill="currentColor"/>
</g>
<defs>
<clipPath id="clip0_1271_569">
<rect width="33" height="33" fill="white"/>
</clipPath>
</defs>
</svg>
