<svg width="37" height="37" viewBox="0 0 37 37" fill="none" xmlns="http://www.w3.org/2000/svg">
<path d="M6.16663 29.2916V15.4166C6.16663 14.9284 6.27608 14.4659 6.495 14.0291C6.71392 13.5923 7.01557 13.2326 7.39996 12.9499L16.65 6.01242C17.1895 5.60131 17.8062 5.39575 18.5 5.39575C19.1937 5.39575 19.8104 5.60131 20.35 6.01242L29.6 12.9499C29.9854 13.2326 30.2875 13.5923 30.5065 14.0291C30.7254 14.4659 30.8343 14.9284 30.8333 15.4166V29.2916C30.8333 30.1395 30.5311 30.8656 29.9268 31.47C29.3225 32.0743 28.5968 32.3759 27.75 32.3749H23.125C22.6882 32.3749 22.3223 32.2269 22.0273 31.9309C21.7323 31.6349 21.5843 31.269 21.5833 30.8333V23.1249C21.5833 22.6881 21.4353 22.3222 21.1393 22.0273C20.8433 21.7323 20.4774 21.5843 20.0416 21.5833H16.9583C16.5215 21.5833 16.1556 21.7313 15.8606 22.0273C15.5657 22.3233 15.4177 22.6891 15.4166 23.1249V30.8333C15.4166 31.2701 15.2686 31.6365 14.9726 31.9325C14.6766 32.2285 14.3107 32.3759 13.875 32.3749H9.24996C8.40204 32.3749 7.67643 32.0733 7.07313 31.47C6.46982 30.8667 6.16765 30.1405 6.16663 29.2916Z" fill="currentColor"/>
</svg>
