<svg width="36" height="36" viewBox="0 0 36 36" fill="none" xmlns="http://www.w3.org/2000/svg">
<path d="M21.525 31.1625L13.5 28.35L6.525 31.05C6.275 31.15 6.031 31.1815 5.793 31.1445C5.555 31.1075 5.3365 31.026 5.1375 30.9C4.9385 30.774 4.7825 30.6055 4.6695 30.3945C4.5565 30.1835 4.5 29.9395 4.5 29.6625V8.625C4.5 8.3 4.594 8.0125 4.782 7.7625C4.97 7.5125 5.226 7.325 5.55 7.2L12.525 4.8375C12.675 4.7875 12.8315 4.75 12.9945 4.725C13.1575 4.7 13.326 4.6875 13.5 4.6875C13.674 4.6875 13.843 4.7 14.007 4.725C14.171 4.75 14.327 4.7875 14.475 4.8375L22.5 7.65L29.475 4.95C29.725 4.85 29.969 4.819 30.207 4.857C30.445 4.895 30.6635 4.976 30.8625 5.1C31.0615 5.224 31.218 5.393 31.332 5.607C31.446 5.821 31.502 6.0645 31.5 6.3375V27.375C31.5 27.7 31.4065 27.9875 31.2195 28.2375C31.0325 28.4875 30.776 28.675 30.45 28.8L23.475 31.1625C23.325 31.2125 23.169 31.25 23.007 31.275C22.845 31.3 22.676 31.3125 22.5 31.3125C22.324 31.3125 22.1555 31.3 21.9945 31.275C21.8335 31.25 21.677 31.2125 21.525 31.1625ZM21 27.825V10.275L15 8.175V25.725L21 27.825Z" fill="currentColor"/>
</svg>
