<svg width="30" height="30" viewBox="0 0 30 30" fill="none" xmlns="http://www.w3.org/2000/svg">
<path d="M15 12.4999C16.3166 12.4997 17.6101 12.8461 18.7504 13.5043C19.8907 14.1625 20.8376 15.1093 21.496 16.2495C22.1544 17.3896 22.501 18.683 22.5011 19.9997C22.5011 21.3163 22.1546 22.6097 21.4963 23.7499H25C25.3315 23.7499 25.6495 23.8816 25.8839 24.116C26.1183 24.3505 26.25 24.6684 26.25 24.9999C26.25 25.3314 26.1183 25.6494 25.8839 25.8838C25.6495 26.1182 25.3315 26.2499 25 26.2499H5C4.66848 26.2499 4.35054 26.1182 4.11612 25.8838C3.8817 25.6494 3.75 25.3314 3.75 24.9999C3.75 24.6684 3.8817 24.3505 4.11612 24.116C4.35054 23.8816 4.66848 23.7499 5 23.7499H8.50375C7.84544 22.6097 7.49889 21.3163 7.49894 19.9997C7.49899 18.683 7.84563 17.3896 8.50401 16.2495C9.1624 15.1093 10.1093 14.1625 11.2496 13.5043C12.3899 12.8461 13.6834 12.4997 15 12.4999ZM15 14.9999C14.008 14.9998 13.0383 15.2949 12.2144 15.8475C11.3905 16.4001 10.7497 17.1853 10.3733 18.1032C9.99702 19.0211 9.90225 20.0302 10.1011 21.0021C10.2999 21.974 10.7834 22.8648 11.49 23.5612L11.6937 23.7487H18.3063C19.0674 23.0769 19.6061 22.1892 19.8505 21.2039C20.095 20.2185 20.0337 19.1821 19.6748 18.2324C19.3159 17.2827 18.6764 16.4647 17.8413 15.8873C17.0063 15.3099 16.0152 15.0004 15 14.9999ZM26.25 18.7499C26.5815 18.7499 26.8995 18.8816 27.1339 19.116C27.3683 19.3505 27.5 19.6684 27.5 19.9999C27.5 20.3314 27.3683 20.6494 27.1339 20.8838C26.8995 21.1182 26.5815 21.2499 26.25 21.2499H25C24.6685 21.2499 24.3505 21.1182 24.1161 20.8838C23.8817 20.6494 23.75 20.3314 23.75 19.9999C23.75 19.6684 23.8817 19.3505 24.1161 19.116C24.3505 18.8816 24.6685 18.7499 25 18.7499H26.25ZM5 18.7499C5.33152 18.7499 5.64946 18.8816 5.88388 19.116C6.1183 19.3505 6.25 19.6684 6.25 19.9999C6.25 20.3314 6.1183 20.6494 5.88388 20.8838C5.64946 21.1182 5.33152 21.2499 5 21.2499H3.75C3.41848 21.2499 3.10054 21.1182 2.86612 20.8838C2.6317 20.6494 2.5 20.3314 2.5 19.9999C2.5 19.6684 2.6317 19.3505 2.86612 19.116C3.10054 18.8816 3.41848 18.7499 3.75 18.7499H5ZM6.16125 11.1612C6.37649 10.9459 6.66287 10.8167 6.96665 10.7976C7.27043 10.7784 7.57075 10.8708 7.81125 11.0574L7.92875 11.1612L8.8125 12.0449C9.03668 12.2699 9.16684 12.5717 9.17654 12.8891C9.18623 13.2066 9.07473 13.5158 8.86469 13.754C8.65465 13.9922 8.36181 14.1415 8.04566 14.1717C7.7295 14.2018 7.41374 14.1104 7.1625 13.9162L7.045 13.8124L6.16125 12.9287C5.92691 12.6943 5.79527 12.3764 5.79527 12.0449C5.79527 11.7135 5.92691 11.3956 6.16125 11.1612ZM23.8387 11.1612C24.0731 11.3956 24.2047 11.7135 24.2047 12.0449C24.2047 12.3764 24.0731 12.6943 23.8387 12.9287L22.955 13.8124C22.7192 14.0401 22.4035 14.1661 22.0757 14.1633C21.748 14.1604 21.4345 14.0289 21.2027 13.7972C20.971 13.5654 20.8395 13.2519 20.8367 12.9242C20.8338 12.5964 20.9598 12.2807 21.1875 12.0449L22.0712 11.1612C22.3057 10.9268 22.6235 10.7952 22.955 10.7952C23.2865 10.7952 23.6043 10.9268 23.8387 11.1612Z" fill="currentColor"/>
<path d="M15.9341 7.98101C15.7025 7.74397 15.3861 7.60866 15.0547 7.60482C14.7233 7.60108 14.4039 7.72913 14.1669 7.96081C13.9298 8.19249 13.7945 8.50883 13.7907 8.84026L13.7764 10.09C13.7783 10.4177 13.9089 10.7316 14.1401 10.964C14.3712 11.1964 14.6843 11.3287 15.0121 11.3325C15.3398 11.3362 15.6559 11.2111 15.8923 10.984C16.1287 10.757 16.2664 10.4462 16.2758 10.1186L16.2901 8.86883C16.2939 8.5374 16.1658 8.21805 15.9341 7.98101Z" fill="currentColor"/>
</svg>
