<svg width="24" height="24" viewBox="0 0 24 24" fill="none" xmlns="http://www.w3.org/2000/svg">
<path fill-rule="evenodd" clip-rule="evenodd" d="M11.6 1C11.4409 1 11.2883 1.01664 11.1757 1.04625C11.0632 1.07586 11 1.11602 11 1.15789V6.8421C11 6.88398 11.0632 6.92414 11.1757 6.95375C11.2883 6.98336 11.4409 7 11.6 7C11.7591 7 11.9117 6.98336 12.0243 6.95375C12.1368 6.92414 12.2 6.88398 12.2 6.8421V1.15789C12.2 1.11602 12.1368 1.07586 12.0243 1.04625C11.9117 1.01664 11.7591 1 11.6 1Z" fill="currentColor"/>
<path fill-rule="evenodd" clip-rule="evenodd" d="M11.6 16C11.4409 16 11.2883 16.0166 11.1757 16.0462C11.0632 16.0759 11 16.116 11 16.1579V21.8421C11 21.884 11.0632 21.9241 11.1757 21.9538C11.2883 21.9834 11.4409 22 11.6 22C11.7591 22 11.9117 21.9834 12.0243 21.9538C12.1368 21.9241 12.2 21.884 12.2 21.8421V16.1579C12.2 16.116 12.1368 16.0759 12.0243 16.0462C11.9117 16.0166 11.7591 16 11.6 16Z" fill="currentColor"/>
<path d="M11.5 22C10.0475 22 8.6825 21.7242 7.405 21.1726C6.1275 20.621 5.01625 19.873 4.07125 18.9287C3.12625 17.9844 2.3783 16.8732 1.8274 15.595C1.2765 14.3168 1.0007 12.9518 1 11.5C0.999301 10.0482 1.2751 8.6832 1.8274 7.405C2.3797 6.1268 3.12765 5.01555 4.07125 4.07125C5.01485 3.12695 6.1261 2.379 7.405 1.8274C8.6839 1.2758 10.0489 1 11.5 1C12.9511 1 14.3161 1.2758 15.595 1.8274C16.8739 2.379 17.9851 3.12695 18.9287 4.07125C19.8723 5.01555 20.6206 6.1268 21.1736 7.405C21.7266 8.6832 22.0021 10.0482 22 11.5C21.9979 12.9518 21.7221 14.3168 21.1726 15.595C20.6231 16.8732 19.8751 17.9844 18.9287 18.9287C17.9823 19.873 16.8711 20.6213 15.595 21.1736C14.3189 21.7259 12.9539 22.0014 11.5 22ZM11.5 19.9C13.845 19.9 15.8312 19.0862 17.4587 17.4587C19.0862 15.8312 19.9 13.845 19.9 11.5C19.9 9.155 19.0862 7.16875 17.4587 5.54125C15.8312 3.91375 13.845 3.1 11.5 3.1C9.155 3.1 7.16875 3.91375 5.54125 5.54125C3.91375 7.16875 3.1 9.155 3.1 11.5C3.1 13.845 3.91375 15.8312 5.54125 17.4587C7.16875 19.0862 9.155 19.9 11.5 19.9Z" fill="currentColor"/>
<path d="M12 16.6999C11.3083 16.6999 10.6583 16.5686 10.05 16.3059C9.44167 16.0433 8.9125 15.6871 8.4625 15.2374C8.0125 14.7878 7.65633 14.2586 7.394 13.6499C7.13167 13.0413 7.00033 12.3913 7 11.6999C6.99967 11.0086 7.131 10.3586 7.394 9.74995C7.657 9.14128 8.01317 8.61212 8.4625 8.16245C8.91183 7.71278 9.441 7.35662 10.05 7.09395C10.659 6.83128 11.309 6.69995 12 6.69995C12.691 6.69995 13.341 6.83128 13.95 7.09395C14.559 7.35662 15.0882 7.71278 15.5375 8.16245C15.9868 8.61212 16.3432 9.14128 16.6065 9.74995C16.8698 10.3586 17.001 11.0086 17 11.6999C16.999 12.3913 16.8677 13.0413 16.606 13.6499C16.3443 14.2586 15.9882 14.7878 15.5375 15.2374C15.0868 15.6871 14.5577 16.0434 13.95 16.3064C13.3423 16.5694 12.6923 16.7006 12 16.6999ZM12 15.6999C13.1167 15.6999 14.0625 15.3124 14.8375 14.5374C15.6125 13.7624 16 12.8166 16 11.6999C16 10.5833 15.6125 9.63745 14.8375 8.86245C14.0625 8.08745 13.1167 7.69995 12 7.69995C10.8833 7.69995 9.9375 8.08745 9.1625 8.86245C8.3875 9.63745 8 10.5833 8 11.6999C8 12.8166 8.3875 13.7624 9.1625 14.5374C9.9375 15.3124 10.8833 15.6999 12 15.6999Z" fill="currentColor"/>
</svg>
