<svg width="34" height="34" viewBox="0 0 34 34" fill="none" xmlns="http://www.w3.org/2000/svg">
<path fill-rule="evenodd" clip-rule="evenodd" d="M8.0353 5.80131C10.4178 3.45371 13.626 2.1342 16.9707 2.12626C20.3155 2.11831 23.5299 3.42255 25.9235 5.75881H25.9264L25.9717 5.80131C30.9938 10.7412 31.0037 18.676 26.0312 23.5663L17.9973 31.4685C17.7323 31.7293 17.3754 31.8755 17.0035 31.8755C16.6317 31.8755 16.2747 31.7293 16.0097 31.4685L7.9758 23.5663C6.79632 22.4132 5.85914 21.036 5.21931 19.5156C4.57947 17.9952 4.24988 16.3624 4.24988 14.7128C4.24988 13.0633 4.57947 11.4304 5.21931 9.91008C5.85914 8.38972 6.79632 7.01253 7.9758 5.85939L8.0353 5.80131ZM17 9.20839C16.4418 9.20839 15.8892 9.31832 15.3736 9.5319C14.8579 9.74548 14.3894 10.0585 13.9948 10.4532C13.6001 10.8478 13.2871 11.3164 13.0735 11.832C12.8599 12.3476 12.75 12.9003 12.75 13.4584C12.75 14.0165 12.8599 14.5692 13.0735 15.0848C13.2871 15.6004 13.6001 16.0689 13.9948 16.4636C14.3894 16.8582 14.8579 17.1713 15.3736 17.3849C15.8892 17.5985 16.4418 17.7084 17 17.7084C18.1271 17.7084 19.2081 17.2606 20.0052 16.4636C20.8022 15.6666 21.25 14.5856 21.25 13.4584C21.25 12.3312 20.8022 11.2502 20.0052 10.4532C19.2081 9.65616 18.1271 9.20839 17 9.20839Z" fill="currentColor"/>
</svg>
