<svg width="29" height="29" viewBox="0 0 29 29" fill="none" xmlns="http://www.w3.org/2000/svg">
<g clip-path="url(#clip0_1271_640)">
<path d="M16.0629 0C16.4892 0 16.8706 0.26535 17.0141 0.66265L18.0378 3.5003C18.4042 3.59117 18.7203 3.68397 18.9861 3.7787C19.2761 3.88213 19.6531 4.04163 20.1171 4.2572L22.5009 2.9957C22.6954 2.89214 22.9182 2.85467 23.1359 2.88893C23.3535 2.9232 23.5541 3.02735 23.7073 3.18565L25.804 5.3534C26.0824 5.64195 26.1607 6.0639 26.0041 6.4322L24.8862 9.05235C25.0708 9.39262 25.2197 9.68455 25.3328 9.92815C25.4546 10.1921 25.6054 10.5594 25.7852 11.0302L28.3908 12.1467C28.7823 12.3134 29.0245 12.7049 28.9984 13.124L28.807 16.1327C28.7939 16.3282 28.7237 16.5155 28.6051 16.6714C28.4865 16.8274 28.3248 16.9451 28.14 17.01L25.6721 17.8872C25.6015 18.2275 25.5271 18.5204 25.4488 18.7659C25.322 19.1464 25.1779 19.5209 25.0167 19.8882L26.2564 22.6287C26.3446 22.8211 26.3685 23.0368 26.3247 23.2439C26.2808 23.451 26.1715 23.6384 26.0128 23.7786L23.6551 25.884C23.5001 26.0226 23.3063 26.1103 23.0999 26.1352C22.8935 26.1601 22.6844 26.121 22.5009 26.0232L20.0707 24.7355C19.6909 24.9376 19.2986 25.1154 18.8962 25.2677L17.8348 25.665L16.8923 28.275C16.8218 28.4657 16.6956 28.6308 16.5302 28.749C16.3647 28.8671 16.1676 28.9328 15.9643 28.9377L13.2093 29C13.0006 29.0048 12.7954 28.9452 12.6218 28.8292C12.4483 28.7132 12.3147 28.5465 12.2393 28.3519L11.1286 25.4127C10.7497 25.2829 10.3745 25.1427 10.0034 24.9922C9.69989 24.8608 9.40102 24.7191 9.10725 24.5674L6.35225 25.7447C6.17079 25.8226 5.97057 25.8458 5.77613 25.8115C5.58168 25.7773 5.40145 25.687 5.2575 25.5519L3.2188 23.6394C3.06645 23.498 2.96268 23.312 2.92232 23.1081C2.88195 22.9042 2.90706 22.6928 2.99405 22.504L4.1787 19.923C4.02171 19.617 3.87565 19.3056 3.7408 18.9892C3.58373 18.6018 3.43866 18.2096 3.3058 17.8132L0.7103 17.023C0.499327 16.9592 0.315312 16.8276 0.186836 16.6485C0.0583589 16.4694 -0.00738981 16.2529 -0.000199592 16.0326L0.1013 13.2472C0.108841 13.0655 0.165741 12.8894 0.265887 12.7376C0.366033 12.5859 0.505639 12.4643 0.6697 12.3859L3.3928 11.078C3.51847 10.6159 3.62963 10.2544 3.7263 9.9934C3.86311 9.64286 4.01502 9.29841 4.1816 8.961L3.0013 6.467C2.91105 6.27775 2.88348 6.06465 2.92259 5.85866C2.9617 5.65266 3.06546 5.4645 3.2188 5.3215L5.2546 3.3988C5.39712 3.26388 5.5757 3.17317 5.76871 3.13766C5.96172 3.10215 6.16089 3.12335 6.3421 3.1987L9.0942 4.3355C9.39773 4.13347 9.6742 3.9672 9.9236 3.8367C10.2204 3.6801 10.6186 3.51287 11.1184 3.335L12.0754 0.66555C12.1469 0.470658 12.2764 0.302365 12.4465 0.183359C12.6165 0.0643532 12.819 0.000357584 13.0266 0L16.0629 0ZM14.5346 10.1776C12.1175 10.1776 10.1585 12.1133 10.1585 14.5029C10.1585 16.8925 12.1175 18.8297 14.5346 18.8297C16.9518 18.8297 18.9093 16.8925 18.9093 14.5029C18.9093 12.1133 16.9518 10.1776 14.5346 10.1776Z" fill="currentColor"/>
</g>
<defs>
<clipPath id="clip0_1271_640">
<rect width="29" height="29" fill="white"/>
</clipPath>
</defs>
</svg>
